<?xml version="1.0" encoding="UTF-8"?>
<svg id="Camada_1" xmlns="http://www.w3.org/2000/svg" version="1.1" viewBox="0 0 950 849.12">
  <!-- Generator: Adobe Illustrator 30.3.0, SVG Export Plug-In . SVG Version: 2.1.3 Build 157)  -->
  <defs>
    <style>
      .st0 {
        fill: #f4c;
      }
    </style>
  </defs>
  <g id="logo-ícone">
    <g id="_BLACK">
      <g id="Porcentagem_-_Direita">
        <path class="st0" d="M665.95,517.59c-41.17,0-76.84,14.86-107,44.59-30.16,29.73-45.23,64.85-45.23,105.38s15.07,75.64,45.23,105.35c30.16,29.73,65.83,44.6,107,44.62,41.15,0,76.8-14.87,106.98-44.62,30.17-29.75,45.26-64.86,45.26-105.35s-15.09-75.64-45.26-105.38c-30.17-29.75-65.83-44.6-106.98-44.59h0Z"/>
      </g>
      <g id="Porcentagem_-_Barra_Meio">
        <polygon class="st0" points="16.27 817.53 289.52 817.53 934.87 39.9 661.63 39.9 16.27 817.53"/>
      </g>
      <g id="Porcentagem_-_Esquerda">
        <path class="st0" d="M285.19,339.84c41.16,0,76.83-14.86,107-44.59,30.17-29.73,45.25-64.85,45.23-105.38,0-40.5-15.07-75.64-45.23-105.35-30.16-29.73-65.83-44.6-107-44.62-41.15,0-76.8,14.87-106.98,44.62-30.17,29.75-45.26,64.86-45.26,105.35s15.09,75.64,45.26,105.38c30.17,29.75,65.83,44.6,106.98,44.59h0Z"/>
      </g>
    </g>
  </g>
  <rect x="1447.57" y="510.94" width="1148.84" height="1013.54"/>
</svg>