<?xml version="1.0" encoding="UTF-8"?>
<svg id="Camada_1" xmlns="http://www.w3.org/2000/svg" version="1.1" viewBox="0 0 950 950">
  <!-- Generator: Adobe Illustrator 30.3.0, SVG Export Plug-In . SVG Version: 2.1.3 Build 157)  -->
  <defs>
    <style>
      .st0 {
        fill: #f4c;
      }
    </style>
  </defs>
  <rect x="2.03" y="-5.32" width="947.08" height="954.2"/>
  <g id="logo-ícone">
    <g id="_BLACK">
      <g id="Porcentagem_-_Direita">
        <path class="st0" d="M617.09,541.33c-30.73,0-57.35,11.09-79.86,33.28-22.51,22.19-33.76,48.4-33.76,78.65,0,30.24,11.25,56.45,33.76,78.63,22.51,22.19,49.13,33.29,79.86,33.3,30.71,0,57.32-11.1,79.84-33.3,22.52-22.2,33.78-48.41,33.78-78.63s-11.26-56.45-33.78-78.65c-22.52-22.2-49.13-33.29-79.84-33.28Z"/>
      </g>
      <g id="Porcentagem_-_Barra_Meio">
        <polygon class="st0" points="132.21 765.19 336.14 765.19 817.79 184.81 613.86 184.81 132.21 765.19"/>
      </g>
      <g id="Porcentagem_-_Esquerda">
        <path class="st0" d="M332.91,408.67c30.72,0,57.34-11.09,79.86-33.28,22.52-22.19,33.77-48.4,33.76-78.65,0-30.23-11.25-56.45-33.76-78.63-22.51-22.19-49.13-33.29-79.86-33.3-30.71,0-57.32,11.1-79.84,33.3-22.52,22.2-33.78,48.41-33.78,78.63s11.26,56.45,33.78,78.65c22.52,22.2,49.13,33.29,79.84,33.28Z"/>
      </g>
    </g>
  </g>
  <rect x="1447.57" y="557.23" width="1148.84" height="1013.54"/>
</svg>