<svg xmlns="http://www.w3.org/2000/svg" viewBox="0 0 950 950"><defs><style>.cls-1{fill:#161616;}</style></defs><g id="logo-ícone"><g id="_BLACK" data-name="% BLACK"><g id="Porcentagem_-_Direita" data-name="Porcentagem - Direita"><path class="cls-1" d="M560.69,515q-27.8,0-48.16,20.07T492.17,582.5q0,27.35,20.36,47.42T560.69,650q27.78,0,48.15-20.08t20.37-47.42q0-27.35-20.37-47.43T560.69,515Z"/></g><g id="Porcentagem_-_Barra_Meio" data-name="Porcentagem - Barra Meio"><polygon class="cls-1" points="268.28 650 391.26 650 681.72 300 558.74 300 268.28 650"/></g><g id="Porcentagem_-_Esquerda" data-name="Porcentagem - Esquerda"><path class="cls-1" d="M389.31,435q27.79,0,48.16-20.07t20.36-47.43q0-27.35-20.36-47.42T389.31,300q-27.78,0-48.15,20.08T320.79,367.5q0,27.35,20.37,47.43T389.31,435Z"/></g></g></g></svg>