<?xml version="1.0" encoding="UTF-8"?>
<svg id="Camada_1" xmlns="http://www.w3.org/2000/svg" version="1.1" viewBox="0 0 701.01 270.59">
  <!-- Generator: Adobe Illustrator 30.3.0, SVG Export Plug-In . SVG Version: 2.1.3 Build 157)  -->
  <defs>
    <style>
      .st0 {
        fill: #161616;
      }
    </style>
  </defs>
  <g id="logo-oficial">
    <g id="CEMPORCENTOSKATEMAG_SK_ATE_BLACK">
      <g id="SK_TE-2">
        <g id="E">
          <polygon class="st0" points="623.69 128.19 632.45 101.28 539.94 101.28 507.04 203.4 599.12 203.4 607.88 176.55 549.34 176.55 553.83 162.8 612.01 162.8 619.06 141.3 560.74 141.3 565.01 128.19 623.69 128.19"/>
        </g>
        <g id="T">
          <polygon class="st0" points="532.19 101.28 483.11 101.28 437.46 101.28 437.46 129.41 453.42 129.41 437.46 178.34 437.46 203.4 462.97 203.4 487.11 129.41 523.07 129.41 532.19 101.28"/>
        </g>
        <g id="_6">
          <g id="Porcentagem_-_Direita">
            <path class="st0" d="M395.16,164.03c-5.29-.05-10.37,2.07-14.06,5.86-7.65,7.27-7.95,19.37-.67,27.02.22.23.44.45.67.67,7.69,7.76,20.22,7.82,27.99.12.04-.04.08-.08.12-.12,7.65-7.25,7.97-19.33.72-26.97-.23-.25-.47-.48-.72-.72-3.69-3.79-8.76-5.91-14.05-5.86Z"/>
          </g>
          <g id="Porcentagem_-_Barra_Meio">
            <polygon class="st0" points="309.81 203.44 345.71 203.44 430.49 101.28 394.59 101.28 309.81 203.44"/>
          </g>
          <g id="Porcentagem_-_Esquerda">
            <path class="st0" d="M345.14,140.66c5.29.05,10.37-2.07,14.05-5.86,7.64-7.25,7.97-19.32.72-26.96-.23-.25-.47-.49-.72-.72-7.69-7.76-20.22-7.82-27.99-.12-.04.04-.08.08-.12.12-7.64,7.26-7.95,19.34-.69,26.99.22.24.46.47.69.69,3.69,3.79,8.77,5.91,14.06,5.86Z"/>
          </g>
        </g>
        <g id="K">
          <polygon class="st0" points="324.99 101.28 286.46 101.28 243.31 136.67 239.18 136.67 250.71 101.28 217.17 101.28 183.91 203.4 217.46 203.4 225.43 178.61 243.59 164.37 246.37 164.37 269.3 203.4 302.84 203.4 270.08 147.64 324.99 101.28"/>
        </g>
        <g id="S">
          <path class="st0" d="M186.13,160.88c-.71-2.01-1.72-3.89-3-5.59-1.39-1.7-3.05-3.17-4.91-4.34-1.82-1.22-3.75-2.26-5.77-3.1-2.22-.86-4.49-1.58-6.8-2.17-2.76-.74-4.99-1.27-6.7-1.6-1.71-.34-4-.74-6.8-1.22s-4.8-.83-5.94-1.06l-6-1.14c-6.5-1.1-9.75-3.47-9.75-7.12,0-3,1.73-5.39,5.2-7.2,3.47-1.81,8.05-2.68,13.79-2.68,6.46,0,11.09,1.11,13.89,3.34,2.8,2.23,3.92,4.84,3.35,7.84h27.56c3.51-7.93,3.97-14.63,1.38-20.09-2.59-5.46-7.51-9.62-14.77-12.49-7.27-2.88-16.18-4.32-26.71-4.31-16.67,0-30.13,3.36-40.38,10.08s-15.38,16.03-15.38,27.93c-.02,2.75.51,5.47,1.57,8,.9,2.24,2.15,4.32,3.7,6.16,1.67,1.83,3.65,3.37,5.84,4.53,2.06,1.17,4.18,2.22,6.37,3.13,2.3.86,4.65,1.55,7.05,2.06,2.92.67,5,1.1,6.24,1.29,1.24.19,3.02.45,5.34.78l8.12,1.35c7.89,1.17,11.83,3.82,11.83,7.95,0,3.33-2.13,5.8-6.38,7.4-4.25,1.6-9.63,2.41-16.13,2.42-6.07,0-10.85-.92-14.35-2.77-3.5-1.85-4.83-4.72-4-8.62h-28.59c-2.09,5.51-2.89,10.34-2.42,14.49.35,3.79,1.66,7.44,3.81,10.58,2.39,3.14,5.59,5.56,9.26,7,4.43,1.88,9.09,3.18,13.85,3.88,5.85.86,11.75,1.26,17.66,1.21,7.71.07,15.42-.6,23-2,6.6-1.23,13-3.37,19-6.37,5.47-2.69,10.09-6.84,13.35-12,3.31-5.49,4.98-11.82,4.81-18.23.04-2.49-.36-4.97-1.19-7.32Z"/>
        </g>
      </g>
      <g id="CEMPORCENTOSKATEMAG-2">
        <g id="g">
          <path class="st0" d="M624.45,78.37c-.66.7-1.02,1.63-1,2.59-.04.58.19,1.14.62,1.53.45.37,1.02.56,1.6.54.24,0,.48-.02.72-.06.28-.05.55-.13.81-.23.31-.12.6-.31.84-.54.28-.24.5-.54.65-.88h-2.8l.55-1.67h5.9l-1.89,5.76h-1.69l.38-1.3c-.51.53-1.12.94-1.8,1.21-.76.3-1.57.45-2.38.44-1.24.08-2.47-.32-3.43-1.12-.85-.83-1.3-1.98-1.23-3.16,0-.91.19-1.82.57-2.65.37-.83.89-1.59,1.54-2.23.69-.66,1.51-1.17,2.4-1.52.95-.38,1.97-.57,3-.57,1.26-.06,2.49.34,3.47,1.14.84.69,1.28,1.76,1.15,2.84h-3.16c-.13-.39-.4-.72-.76-.93-.4-.23-.84-.34-1.3-.33-1.04-.04-2.05.38-2.76,1.14Z"/>
        </g>
        <g id="a">
          <path class="st0" d="M599.99,83.89h-4.69l-1,1.52h-3.38l7.26-10.56h4.44l.55,10.56h-3.13l-.05-1.52ZM599.92,81.54l-.1-3.72h-.47l-2.48,3.72h3.05Z"/>
        </g>
        <g id="m">
          <path class="st0" d="M564.91,74.85h3.84l-.09,6.41h.28l4-6.39h4.18l-3.37,10.54h-3l1.7-5.23h-.32l-3.2,5.23h-2.4v-5.23h-.3l-1.69,5.23h-3l3.37-10.56Z"/>
        </g>
        <g id="e-2">
          <path class="st0" d="M540.39,77.38l-.55,1.68h6.12l-.66,2.06h-6.12l-.56,1.76h6.16l-.83,2.53h-9.32l3.42-10.56h9.4l-.83,2.53h-6.23Z"/>
        </g>
        <g id="t-2">
          <path class="st0" d="M519.73,77.5h-3.77l-2.58,7.91h-3.16l2.57-7.91h-3.85l.85-2.65h10.8l-.86,2.65Z"/>
        </g>
        <g id="a-2">
          <path class="st0" d="M488.62,83.89h-4.69l-1,1.52h-3.38l7.26-10.56h4.44l.55,10.56h-3.12l-.06-1.52ZM488.55,81.54l-.09-3.72h-.47l-2.49,3.72h3.05Z"/>
        </g>
        <g id="k-2">
          <path class="st0" d="M459.85,79.66l3.35,5.78h-3.13l-2.45-4.21h-.26l-2.06,1.62-.85,2.59h-3.15l3.45-10.56h3.15l-1.3,4h.37l5-4h3.64l-5.76,4.78Z"/>
        </g>
        <g id="s-2">
          <path class="st0" d="M425.16,84.87c-.78-.6-1-1.55-.51-2.87h2.69c-.12.39.05.81.42,1,.5.25,1.06.36,1.62.33.62.02,1.23-.08,1.81-.31.41-.11.7-.48.73-.9,0-.23-.11-.45-.31-.58-.32-.2-.68-.32-1.06-.36l-.85-.16-.48-.09c-.1,0-.28,0-.54-.11-.21-.04-.42-.1-.62-.17l-.56-.24c-.2-.09-.39-.2-.56-.34-.15-.14-.29-.28-.42-.43-.15-.17-.25-.37-.31-.58-.07-.23-.1-.47-.1-.71-.03-1.15.56-2.24,1.55-2.83,1.21-.71,2.6-1.06,4-1,1.29-.1,2.57.26,3.62,1,.79.68.98,1.84.43,2.73h-2.59c.08-.36-.07-.72-.37-.93-.46-.29-.99-.42-1.53-.37-.54-.02-1.08.09-1.57.33-.34.15-.57.49-.59.86,0,.44.38.73,1.14.87l.64.12.61.12.68.14.67.17c.23.06.46.14.68.23.2.1.39.2.57.32.19.12.35.27.49.44.27.39.41.84.41,1.31.04,1.29-.68,2.48-1.84,3.05-.6.31-1.24.53-1.91.66-.77.15-1.55.22-2.33.21-1.3.09-2.6-.23-3.71-.91Z"/>
        </g>
        <g id="o">
          <path class="st0" d="M397.25,84.66c-.86-.83-1.31-1.98-1.25-3.17,0-.9.2-1.8.57-2.62.37-.83.9-1.58,1.55-2.21.69-.65,1.49-1.17,2.37-1.53.95-.39,1.97-.58,3-.57,1.27-.08,2.53.33,3.51,1.14.87.81,1.33,1.97,1.26,3.16,0,.91-.19,1.8-.57,2.63-.76,1.72-2.17,3.06-3.92,3.74-.95.39-1.97.59-3,.58-1.28.08-2.54-.33-3.52-1.15ZM403.98,81.93c.69-.68,1.09-1.6,1.12-2.57.03-.58-.19-1.14-.61-1.54-.43-.37-.99-.56-1.56-.54-1.02-.02-2,.41-2.69,1.16-.69.68-1.08,1.6-1.1,2.56-.03.58.19,1.14.6,1.54.43.37.98.56,1.54.54,1.03.01,2.02-.43,2.7-1.2v.05Z"/>
        </g>
        <g id="t-3">
          <path class="st0" d="M380.16,77.5h-3.78l-2.57,7.91h-3.17l2.58-7.91h-3.85l.84-2.65h10.8l-.85,2.65Z"/>
        </g>
        <g id="n">
          <path class="st0" d="M341.75,74.85h3.5l2,6.26h.34l2.06-6.26h3.08l-3.44,10.56h-3.41l-2.14-6.19h-.29l-2,6.19h-3.1l3.4-10.56Z"/>
        </g>
        <g id="e-3">
          <path class="st0" d="M317.21,77.38l-.54,1.68h6.12l-.67,2.06h-6.11l-.57,1.76h6.17l-.83,2.53h-9.33l3.41-10.56h9.35l-.83,2.53h-6.17Z"/>
        </g>
        <g id="c">
          <path class="st0" d="M285.27,84.66c-.86-.84-1.32-2.01-1.25-3.21,0-.9.19-1.79.57-2.6.37-.82.89-1.57,1.54-2.2.7-.66,1.51-1.18,2.41-1.52.95-.38,1.97-.57,3-.57,1.33-.08,2.64.39,3.62,1.29.86.82,1.21,2.04.92,3.19h-3c.02-.53-.21-1.05-.63-1.38-.43-.31-.95-.47-1.48-.45-1.03-.03-2.02.39-2.72,1.14-.69.68-1.09,1.62-1.09,2.59-.04.58.19,1.14.62,1.53.45.37,1.02.56,1.6.54,1.24.03,2.39-.63,3-1.71h3.07c-.24.65-.58,1.27-1,1.82-.36.49-.78.92-1.27,1.28-.45.33-.95.6-1.47.8-.48.2-.99.34-1.5.43-.48.07-.96.11-1.44.11-1.26.1-2.51-.29-3.5-1.08Z"/>
        </g>
        <g id="r">
          <path class="st0" d="M266.62,80.28c-.5.71-1.17,1.28-1.95,1.66l.82,3.47h-3l-.64-2.85h-3l-.91,2.85h-3.18l3.41-10.56h5.39c2.57,0,3.85,1,3.86,3,0,.87-.28,1.73-.8,2.43ZM259.55,80.22h2.58c.5,0,1-.15,1.4-.46.4-.28.64-.74.63-1.23.03-.31-.09-.61-.33-.8-.3-.17-.65-.25-1-.23h-2.38l-.9,2.72Z"/>
        </g>
        <g id="o-2">
          <path class="st0" d="M228.2,84.66c-.86-.82-1.32-1.98-1.26-3.17,0-.9.2-1.8.57-2.62.38-.83.9-1.58,1.55-2.21,1.44-1.36,3.35-2.11,5.33-2.1,1.28-.08,2.53.33,3.52,1.14.87.81,1.33,1.97,1.26,3.16,0,.91-.2,1.8-.58,2.63-.37.83-.9,1.59-1.55,2.22-.68.65-1.49,1.17-2.37,1.52-.95.4-1.97.59-3,.58-1.26.07-2.5-.34-3.47-1.15ZM234.92,81.93c.69-.68,1.09-1.6,1.12-2.57.03-.58-.19-1.14-.61-1.54-.43-.37-.98-.56-1.55-.54-1.02-.02-2.01.4-2.7,1.16-.69.68-1.08,1.6-1.09,2.56-.03.58.19,1.14.6,1.54.43.37.98.56,1.54.54,1.03.01,2.01-.43,2.69-1.2v.05Z"/>
        </g>
        <g id="p">
          <path class="st0" d="M209.27,75.6c.7.58,1.07,1.46,1,2.36.06,1.41-.52,2.78-1.58,3.71-1.12.93-2.54,1.41-4,1.36h-3.06l-.78,2.38h-3.2l3.44-10.56h5.27c1.03-.07,2.05.19,2.91.75ZM206.45,79.91c.41-.34.65-.85.63-1.38,0-.7-.45-1.05-1.34-1.05h-2.29l-1,3h2.38c.59.02,1.17-.19,1.62-.57Z"/>
        </g>
        <g id="m-2">
          <path class="st0" d="M171.28,74.85h3.84l-.09,6.41h.28l4-6.39h4.18l-3.37,10.54h-3.05l1.71-5.23h-.33l-3.2,5.23h-2.4v-5.23h-.3l-1.69,5.23h-3l3.42-10.56Z"/>
        </g>
        <g id="e-4">
          <path class="st0" d="M146.76,77.38l-.55,1.68h6.12l-.66,2.06h-6.12l-.56,1.76h6.16l-.83,2.53h-9.32l3.45-10.56h9.35l-.83,2.53h-6.21Z"/>
        </g>
        <g id="c-2">
          <path class="st0" d="M114.82,84.66c-.87-.84-1.33-2.01-1.26-3.21,0-.9.2-1.78.57-2.6.78-1.73,2.22-3.07,4-3.72.95-.38,1.97-.57,3-.57,1.33-.08,2.63.39,3.61,1.29.86.82,1.21,2.04.92,3.19h-3c0-.51-.23-.99-.62-1.31-.43-.31-.96-.47-1.49-.45-1.03-.02-2.02.39-2.72,1.14-.69.69-1.08,1.62-1.08,2.59-.04.58.18,1.14.61,1.53.45.37,1.03.57,1.61.54,1.24.02,2.39-.63,3-1.71h3c-.25.65-.58,1.26-1,1.82-.36.49-.79.92-1.28,1.28-.45.33-.95.6-1.47.8-.48.2-.99.34-1.5.43-.47.07-.95.11-1.43.11-1.26.07-2.5-.34-3.47-1.15Z"/>
        </g>
      </g>
    </g>
  </g>
</svg>