<?xml version="1.0" encoding="UTF-8"?>
<svg id="Camada_1" xmlns="http://www.w3.org/2000/svg" version="1.1" viewBox="0 0 392.25 392.25">
  <!-- Generator: Adobe Illustrator 30.4.0, SVG Export Plug-In . SVG Version: 2.1.3 Build 42)  -->
  <path d="M.31,153.88l.02-19.93c2.23-31.92,14.99-61.76,36.44-85.66,60.28-67.18,167.66-62.19,221.34,10.3,31.62,42.69,37.47,99.68,13.45,148.72-21.17,43.24-64.51,74.6-114.74,79.29-43.88,4.1-87.02-11.92-117.43-44.13C16.38,218.1,2.55,187.05.31,153.88ZM253.75,133.06c-6.79-67.52-70.63-112.5-136.25-97.23-51.54,11.99-87.44,59.38-85.48,112.3,1.94,52.22,40.5,96.96,93.03,105.46,34.36,5.56,69.28-4.9,94.51-28.81,24.58-23.3,37.68-57.01,34.19-91.72Z"/>
  <path d="M392.03,357.89v7.44c-1.62,10.71-8.49,19.67-17.84,23.58-10.33,4.32-22.66,3.31-30.71-4.65l-64.62-63.87c-6.81-6.73-10.44-14.26-10.86-23.74l-28.54-28.66c11.11-8.73,20.5-18.49,29.02-29.41l28.78,28.58c8.08.55,15.65,2.73,21.58,8.66l64.22,64.2c5.14,5.14,7.7,11.09,8.96,17.86Z"/>
  <path d="M96.92,190.75c2.93,2.94,1.8,7.49-.35,9.57-2.9,2.8-7,2.49-9.85-.37-31.05-31.21-30.83-81.9.75-112.65,2.52-2.45,6.68-1.88,9.12.33,2.16,1.96,3.16,6.71.5,9.36-25.98,25.89-26.3,67.55-.16,93.76Z"/>
</svg>